<?xml version="1.0" encoding="UTF-8" standalone="no"?>
<!DOCTYPE svg PUBLIC "-//W3C//DTD SVG 1.1//EN"
 "http://www.w3.org/Graphics/SVG/1.1/DTD/svg11.dtd">
<!-- Generated by graphviz version 12.2.1 (20241206.2353)
 -->
<!-- Title: simple_er_diagram Pages: 1 -->
<svg width="663pt" height="129pt"
 viewBox="0.00 0.00 662.62 129.00" xmlns="http://www.w3.org/2000/svg" xmlns:xlink="http://www.w3.org/1999/xlink">
<g id="graph0" class="graph" transform="scale(1 1) rotate(0) translate(4 125)">
<title>simple_er_diagram</title>
<polygon fill="white" stroke="none" points="-4,4 -4,-125 658.62,-125 658.62,4 -4,4"/>
<!-- person -->
<g id="node1" class="node">
<title>person</title>
<polygon fill="lightblue" stroke="black" points="66.25,-121 0,-121 0,-84.5 66.25,-84.5 66.25,-121"/>
<text text-anchor="middle" x="33.12" y="-105.6" font-family="Arial" font-size="12.00">Person</text>
<text text-anchor="middle" x="33.12" y="-91.35" font-family="Arial" font-size="12.00">(General)</text>
</g>
<!-- webhook_log -->
<g id="node2" class="node">
<title>webhook_log</title>
<polygon fill="lightblue" stroke="black" points="171.75,-121 84.5,-121 84.5,-84.5 171.75,-84.5 171.75,-121"/>
<text text-anchor="middle" x="128.12" y="-105.6" font-family="Arial" font-size="12.00">WebhookLog</text>
<text text-anchor="middle" x="128.12" y="-91.35" font-family="Arial" font-size="12.00">(General)</text>
</g>
<!-- mta_connection_log -->
<g id="node3" class="node">
<title>mta_connection_log</title>
<polygon fill="lightcoral" stroke="black" points="306.75,-121 189.5,-121 189.5,-84.5 306.75,-84.5 306.75,-121"/>
<text text-anchor="middle" x="248.12" y="-105.6" font-family="Arial" font-size="12.00">MtaConnectionLog</text>
<text text-anchor="middle" x="248.12" y="-91.35" font-family="Arial" font-size="12.00">(MTA Processing)</text>
</g>
<!-- blocked_ips -->
<g id="node5" class="node">
<title>blocked_ips</title>
<polygon fill="lightcoral" stroke="black" points="450.12,-121 356.12,-121 356.12,-84.5 450.12,-84.5 450.12,-121"/>
<text text-anchor="middle" x="403.12" y="-105.6" font-family="Arial" font-size="12.00">BlockedIp</text>
<text text-anchor="middle" x="403.12" y="-91.35" font-family="Arial" font-size="12.00">(MTA Security)</text>
</g>
<!-- mta_connection_log&#45;&gt;blocked_ips -->
<g id="edge2" class="edge">
<title>mta_connection_log&#45;&gt;blocked_ips</title>
<path fill="none" stroke="red" stroke-dasharray="5,2" d="M307.17,-102.75C319.35,-102.75 332.19,-102.75 344.37,-102.75"/>
<polygon fill="red" stroke="red" points="344.29,-106.25 354.29,-102.75 344.29,-99.25 344.29,-106.25"/>
<text text-anchor="middle" x="331.44" y="-108.25" font-family="Arial" font-size="10.00">checks</text>
</g>
<!-- mta_message_log -->
<g id="node4" class="node">
<title>mta_message_log</title>
<polygon fill="lightcoral" stroke="black" points="578.38,-121 467.88,-121 467.88,-84.5 578.38,-84.5 578.38,-121"/>
<text text-anchor="middle" x="523.12" y="-105.6" font-family="Arial" font-size="12.00">MtaMessageLog</text>
<text text-anchor="middle" x="523.12" y="-91.35" font-family="Arial" font-size="12.00">(MTA Processing)</text>
</g>
<!-- message_categories -->
<g id="node6" class="node">
<title>message_categories</title>
<polygon fill="lightgreen" stroke="black" points="654.62,-36.5 539.62,-36.5 539.62,0 654.62,0 654.62,-36.5"/>
<text text-anchor="middle" x="597.12" y="-21.1" font-family="Arial" font-size="12.00">MessageCategory</text>
<text text-anchor="middle" x="597.12" y="-6.85" font-family="Arial" font-size="12.00">(Category System)</text>
</g>
<!-- mta_message_log&#45;&gt;message_categories -->
<g id="edge3" class="edge">
<title>mta_message_log&#45;&gt;message_categories</title>
<path fill="none" stroke="green" stroke-dasharray="5,2" d="M538.82,-84.25C549.02,-72.88 562.5,-57.85 573.93,-45.1"/>
<polygon fill="green" stroke="green" points="576.37,-47.63 580.44,-37.85 571.16,-42.95 576.37,-47.63"/>
<text text-anchor="middle" x="584.06" y="-57" font-family="Arial" font-size="10.00">validates</text>
</g>
<!-- subscriptions -->
<g id="node7" class="node">
<title>subscriptions</title>
<polygon fill="lightgreen" stroke="black" points="476.62,-36.5 361.62,-36.5 361.62,0 476.62,0 476.62,-36.5"/>
<text text-anchor="middle" x="419.12" y="-21.1" font-family="Arial" font-size="12.00">Subscription</text>
<text text-anchor="middle" x="419.12" y="-6.85" font-family="Arial" font-size="12.00">(Category System)</text>
</g>
<!-- mta_message_log&#45;&gt;subscriptions -->
<g id="edge4" class="edge">
<title>mta_message_log&#45;&gt;subscriptions</title>
<path fill="none" stroke="green" stroke-dasharray="5,2" d="M500.81,-84.05C486.01,-72.31 466.37,-56.73 450.07,-43.79"/>
<polygon fill="green" stroke="green" points="452.59,-41.33 442.58,-37.86 448.24,-46.82 452.59,-41.33"/>
<text text-anchor="middle" x="493.1" y="-57" font-family="Arial" font-size="10.00">verifies</text>
</g>
<!-- subscriptions&#45;&gt;message_categories -->
<g id="edge1" class="edge">
<title>subscriptions&#45;&gt;message_categories</title>
<path fill="none" stroke="blue" stroke-width="2" d="M476.92,-18.25C493.16,-18.25 511,-18.25 527.85,-18.25"/>
<polygon fill="blue" stroke="blue" stroke-width="2" points="526.29,-21.75 536.29,-18.25 526.29,-14.75 526.29,-21.75"/>
<text text-anchor="middle" x="508.12" y="-23.75" font-family="Arial" font-size="10.00">belongs to</text>
</g>
</g>
</svg>
